<?xml version="1.0" encoding="UTF-8"?>
<svg xmlns="http://www.w3.org/2000/svg" viewBox="0 0 64 128" width="64" height="128">
  <defs>
<radialGradient id="g1" cx="32" cy="18" r="17" fx="28" fy="14" gradientUnits="userSpaceOnUse"><stop offset="0%" stop-color="#fde8c8" stop-opacity="1"/><stop offset="55%" stop-color="#f0b87a" stop-opacity="1"/><stop offset="100%" stop-color="#c8844a" stop-opacity="1"/></radialGradient>
<linearGradient id="g3" x1="32" y1="42" x2="32" y2="116" gradientUnits="userSpaceOnUse"><stop offset="0%" stop-color="#eb8918" stop-opacity="1"/><stop offset="40%" stop-color="#d97706" stop-opacity="1"/><stop offset="100%" stop-color="#c36100" stop-opacity="1"/></linearGradient>
<linearGradient id="g4" x1="8" y1="48" x2="56" y2="92" gradientUnits="userSpaceOnUse"><stop offset="0%" stop-color="#e58312" stop-opacity="1"/><stop offset="100%" stop-color="#bd5b00" stop-opacity="1"/></linearGradient>
<linearGradient id="g5" x1="32" y1="48" x2="32" y2="116" gradientUnits="userSpaceOnUse"><stop offset="0%" stop-color="#fef9e7" stop-opacity="1"/><stop offset="100%" stop-color="#f2eddb" stop-opacity="1"/></linearGradient>
<radialGradient id="g6" cx="26" cy="24" r="3.5" fx="25" fy="23" gradientUnits="userSpaceOnUse"><stop offset="0%" stop-color="#7dd3fc" stop-opacity="1"/><stop offset="45%" stop-color="#2563eb" stop-opacity="1"/><stop offset="100%" stop-color="#1e3a8a" stop-opacity="1"/></radialGradient>
<radialGradient id="g7" cx="38" cy="24" r="3.5" fx="37" fy="23" gradientUnits="userSpaceOnUse"><stop offset="0%" stop-color="#7dd3fc" stop-opacity="1"/><stop offset="45%" stop-color="#2563eb" stop-opacity="1"/><stop offset="100%" stop-color="#1e3a8a" stop-opacity="1"/></radialGradient>
<linearGradient id="g8" x1="20" y1="118" x2="44" y2="126" gradientUnits="userSpaceOnUse"><stop offset="0%" stop-color="#904126" stop-opacity="1"/><stop offset="100%" stop-color="#7c2d12" stop-opacity="1"/></linearGradient>
<linearGradient id="g9" x1="32" y1="6" x2="32" y2="28" gradientUnits="userSpaceOnUse"><stop offset="0%" stop-color="#332b2b" stop-opacity="1"/><stop offset="100%" stop-color="#1a1212" stop-opacity="1"/></linearGradient>
<linearGradient id="g10" x1="32" y1="4" x2="32" y2="24" gradientUnits="userSpaceOnUse"><stop offset="0%" stop-color="#ffe247" stop-opacity="1"/><stop offset="50%" stop-color="#f1b51a" stop-opacity="1"/><stop offset="100%" stop-color="#dda106" stop-opacity="1"/></linearGradient>
<linearGradient id="g11" x1="32" y1="2" x2="32" y2="18" gradientUnits="userSpaceOnUse"><stop offset="0%" stop-color="#2e2626" stop-opacity="1"/><stop offset="100%" stop-color="#100808" stop-opacity="1"/></linearGradient>
  </defs>
<!-- robe shadow sides -->
<path d="M 12,46 C 8,68 5,90 6,116 L 10,116 C 9,90 12,68 16,46 Z" fill="#b65400" opacity="0.45"/>
<path d="M 52,46 C 56,68 59,90 58,116 L 54,116 C 55,90 52,68 48,46 Z" fill="#b65400" opacity="0.45"/>
<!-- left sleeve -->
<path d="M 6,50 C 2,60 0,76 2,94 L 14,92 C 12,76 14,62 18,50 Z"
  fill="url(#g4)" stroke="#ac4a00" stroke-width="0.7" stroke-linejoin="round"/>
<!-- right sleeve -->
<path d="M 58,50 C 62,60 64,76 62,94 L 50,92 C 52,76 50,62 46,50 Z"
  fill="url(#g4)" stroke="#ac4a00" stroke-width="0.7" stroke-linejoin="round"/>
<!-- inner robe hem -->
<path d="M 22,110 L 32,118 L 42,110 L 48,116 L 32,126 L 16,116 Z" fill="url(#g5)"/>
<!-- main robe -->
<path d="M 18,46 C 14,58 10,78 8,116 L 56,116 C 54,78 50,58 46,46 Z"
  fill="url(#g3)" stroke="#ac4a00" stroke-width="0.8" stroke-linejoin="round"/>
<!-- v-neck inner -->
<path d="M 23,46 L 32,60 L 41,46" fill="none" stroke="#fef9e7" stroke-width="2.5" stroke-linecap="round"/>
<path d="M 25,46 L 32,58 L 39,46" fill="#f6f1df" opacity="0.5"/>
<path d="M 22,46 C 26,60 30,80 34,116" stroke="#ca6800" stroke-width="2" fill="none" opacity="0.7"/>
<path d="M 20,46 L 32,54 L 44,46" fill="none" stroke="#fbbf24" stroke-width="2.5" stroke-linecap="round"/>
<!-- belt -->
<path d="M 16,72 L 48,72 L 48,78 L 16,78 Z" fill="#78350f" stroke="#5f1c00" stroke-width="0.7"/>
<!-- belt knot -->
<path d="M 28,69 L 32,73 L 36,69 L 36,81 L 32,77 L 28,81 Z" fill="#8e4b25" stroke="#642100" stroke-width="0.6"/>
<ellipse cx="32" cy="75" rx="3" ry="2.5" fill="#8e4b25" stroke="#5a1700" stroke-width="0.5"/>
<!-- neck -->
<rect x="27" y="36" width="10" height="12" rx="3" fill="url(#g1)"/>
<path d="M 27,38 L 37,38" stroke="#c8844a" stroke-width="0.5" opacity="0.4"/>
<!-- head -->
<ellipse cx="32" cy="21" rx="14" ry="16" fill="url(#g1)" stroke="#daa264" stroke-width="0.8"/>
<!-- cheek blush (female) -->

<!-- bald shine -->
<ellipse cx="28" cy="11" rx="6" ry="3.5" fill="#fde8c8" opacity="0.38"/>
<ellipse cx="36" cy="8" rx="3" ry="2" fill="#fde8c8" opacity="0.22"/>
<!-- eyebrows -->
<path d="M 21,18 C 23,16.5 27,16.5 29,18" fill="none" stroke="#d29a5c" stroke-width="1.4" stroke-linecap="round"/>
<path d="M 35,18 C 37,16.5 41,16.5 43,18" fill="none" stroke="#d29a5c" stroke-width="1.4" stroke-linecap="round"/>
<!-- eyes -->
<!-- sclera -->
<ellipse cx="26" cy="24" rx="4.5" ry="3.8" fill="white" stroke="#d79f61" stroke-width="0.6"/>
<ellipse cx="38" cy="24" rx="4.5" ry="3.8" fill="white" stroke="#d79f61" stroke-width="0.6"/>
<!-- iris -->
<circle cx="26" cy="24.5" r="3.2" fill="url(#g6)"/>
<circle cx="38" cy="24.5" r="3.2" fill="url(#g7)"/>
<!-- pupil -->
<circle cx="26" cy="24.5" r="1.6" fill="#070714"/>
<circle cx="38" cy="24.5" r="1.6" fill="#070714"/>
<!-- catch light -->
<circle cx="24.8" cy="23.1" r="0.9" fill="white" opacity="0.95"/>
<circle cx="36.8" cy="23.1" r="0.9" fill="white" opacity="0.95"/>
<!-- upper eyelid crease -->
<path d="M 21.5,21.5 C 24,20 28,20 30.5,21.5" fill="none" stroke="#ca9254" stroke-width="0.9" stroke-linecap="round"/>
<path d="M 33.5,21.5 C 36,20 40,20 42.5,21.5" fill="none" stroke="#ca9254" stroke-width="0.9" stroke-linecap="round"/>

<!-- nose + mouth -->
<path d="M 30.5,28.5 C 31,30 33,30 33.5,28.5" fill="none" stroke="#d49c5e" stroke-width="0.9" stroke-linecap="round"/>
<path d="M 27,32.5 C 29.5,35 34.5,35 37,32.5" fill="none" stroke="#c06848" stroke-width="1.1" stroke-linecap="round"/>
<!-- nostril hints -->
<circle cx="30" cy="29.5" r="0.7" fill="#cd9557" opacity="0.5"/>
<circle cx="34" cy="29.5" r="0.7" fill="#cd9557" opacity="0.5"/>
<!-- hands -->
<ellipse cx="5" cy="94" rx="4.5" ry="3.5" fill="#f0b87a" stroke="#daa264" stroke-width="0.6"/>
<ellipse cx="59" cy="94" rx="4.5" ry="3.5" fill="#f0b87a" stroke="#daa264" stroke-width="0.6"/>
<!-- finger lines -->
<path d="M 2,93 L 3,96 M 4.5,92 L 5,96 M 7,92 L 7.5,96" stroke="#d29a5c" stroke-width="0.5" opacity="0.5"/>
<path d="M 56,92 L 56.5,96 M 58.5,92 L 59,96 M 61,93 L 61.5,96" stroke="#d29a5c" stroke-width="0.5" opacity="0.5"/>
<!-- shoes -->
<path d="M 14,116 C 12,118 10,122 12,126 L 26,126 C 28,124 28,120 26,116 Z"
  fill="url(#g8)" stroke="#6d1e03" stroke-width="0.7"/>
<path d="M 50,116 C 52,118 54,122 52,126 L 38,126 C 36,124 36,120 38,116 Z"
  fill="url(#g8)" stroke="#6d1e03" stroke-width="0.7"/>
<!-- shoe sole line -->
<path d="M 12,124 L 26,124" stroke="#904126" stroke-width="0.7" opacity="0.5"/>
<path d="M 38,124 L 52,124" stroke="#904126" stroke-width="0.7" opacity="0.5"/>
</svg>